<?xml version="1.0" encoding="utf-8"?>
<!-- Generator: Adobe Illustrator 26.2.1, SVG Export Plug-In . SVG Version: 6.00 Build 0)  -->
<svg version="1.1" id="Layer_1" xmlns="http://www.w3.org/2000/svg" xmlns:xlink="http://www.w3.org/1999/xlink" x="0px" y="0px"
	 viewBox="0 0 662.5 163" style="enable-background:new 0 0 662.5 163;" xml:space="preserve">
<style type="text/css">
	.st0{fill:#FFFFFF;}
</style>
<g id="_x31_c5a6a19-c551-4131-8d34-29a351e8ec2e" transform="matrix(1.4509108781417288,0,0,1.4509108781417288,282.6640247228411,-3.345969031456157)">
	<path class="st0" d="M62.5,27.5h-58c-2.2,0-4,1.8-4,4v9.1c0,0.5,0.5,1,1,1h64c0.6,0,1-0.5,1-1v-9.1C66.5,29.3,64.7,27.5,62.5,27.5z
		 M8.8,36.7c-1.1,0-2-0.9-2-2c0-1.1,0.9-2,2-2s2,0.9,2,2C10.8,35.8,9.9,36.7,8.8,36.7z M15.8,36.7c-1.1,0-2-0.9-2-2c0-1.1,0.9-2,2-2
		s2,0.9,2,2C17.8,35.8,16.9,36.7,15.8,36.7z M30,62.1l6.7-4.2L30,53.7V62.1z"/>
	<path class="st0" d="M1.5,43.6c-0.4,0-0.7-0.1-1-0.2v42.1c0,2.2,1.8,4,4,4h58c2.2,0,4-1.8,4-4V43.4c-0.3,0.1-0.6,0.2-1,0.2H1.5z
		 M7.9,74h9.6v2H7.9V74z M19.5,83H7.9v-2h11.6V83z M17.9,66.5c-1.8-4.7-1.8-12.6,0-17.3c0.6-1.7,2.3-2.8,4.1-2.8h22.7
		c1.8,0,3.4,1,4.1,2.6c2.1,4.6,2.1,13.1,0,17.7c-0.7,1.6-2.3,2.6-4.1,2.6H22.1C20.2,69.3,18.6,68.2,17.9,66.5z M23,74
		c4.8-0.1,9.7-0.2,14.6-0.2v2c-4.8,0-9.7,0.1-14.6,0.2L23,74z M29.7,83h-6.1v-2h6.1V83z M43.9,83H33.5v-2h10.4V83z M59.1,83H48v-2
		h11.1V83L59.1,83z M59.1,76c-5.8-0.1-11.5-0.2-17.3-0.2v-2c5.8,0,11.6,0.1,17.4,0.2L59.1,76z"/>
	<path class="st0" d="M47,65.9c1.9-4.1,1.9-11.9,0-16.1c-0.4-0.8-1.3-1.4-2.2-1.4H22.1c-1,0-1.9,0.6-2.3,1.5
		c-1.6,4.2-1.6,11.6,0,15.8c0.3,0.9,1.3,1.5,2.3,1.5h22.7C45.8,67.3,46.7,66.8,47,65.9z M38.3,59.3l-7.9,4.9
		c-0.8,0.5-1.7,0.2-2.2-0.5C28,63.4,28,63.1,28,62.8V53c0-0.9,0.7-1.6,1.6-1.6c0.3,0,0.6,0.1,0.9,0.2l7.9,4.9
		c0.5,0.3,0.8,0.8,0.8,1.4C39,58.5,38.8,59,38.3,59.3L38.3,59.3z"/>
</g>
</svg>
